<svg width="91.733" height="91.733" version="1.1" viewBox="0 0 86 86" xmlns="http://www.w3.org/2000/svg" xmlns:xlink="http://www.w3.org/1999/xlink">
	<defs>
		<linearGradient id="linearGradient3036" x1="45" x2="45" y1="10" y2="80" gradientTransform="matrix(-.95556 0 0 .95556 86 4)" gradientUnits="userSpaceOnUse" spreadMethod="reflect">
			<stop stop-color="#e50c98" offset="0"/>
			<stop stop-color="#960862" offset="1"/>
		</linearGradient>
		<linearGradient id="linearGradient3998" x1="16.091" x2="16.091" y1="-7.0983" y2="36.839" gradientUnits="userSpaceOnUse">
			<stop stop-color="#c3c3c3" offset="0"/>
			<stop stop-color="#fff" offset="1"/>
		</linearGradient>
		<linearGradient id="linearGradient4013" x1="56.517" x2="70.611" y1="37.645" y2="21.702" gradientTransform="matrix(.98486 0 0 .98486 -.92041 1.4578)" gradientUnits="userSpaceOnUse" xlink:href="#linearGradient5239"/>
		<linearGradient id="linearGradient5239">
			<stop stop-color="#fff" offset="0"/>
			<stop stop-color="#c0c0c0" offset="1"/>
		</linearGradient>
	</defs>
	<g transform="translate(0,-4)">
		<path d="m43 4c23.748 0 43 19.252 43 43v40.79c0 1.2284-0.98135 2.2097-2.2097 2.2097h-40.79c-0.74213 0-1.4768-0.02257-2.2097-0.05972-22.72-1.1517-40.79-19.934-40.79-42.94v-40.79c0-1.2284 0.98135-2.2097 2.2097-2.2097z" fill="url(#linearGradient3036)"/>
		<g transform="matrix(1 0 0 1 -5.0002 -1)">
			<path d="m57.815 35.029-19.01 5.0241c-0.83815 0.22214-1.5235 1.1107-1.5235 1.9788v22.778c-1.7724-0.47579-4.0442-0.24735-6.2215 0.80348-14.102 8.769 9.0009 14.465 9.3708 2.8311v-19.64l15.755-4.1671v17.023c-1.7724-0.47422-4.0426-0.24892-6.2215 0.80348-3.7055 1.7913-5.6874 5.24-4.4255 7.7024 1.2588 2.4624 5.2841 3.0091 8.9912 1.2147 2.954-1.4274 4.813-3.9024 4.8067-6.0955v-29.085c0.0016-0.8665-0.68532-1.3943-1.5219-1.1721z" fill="#575757"/>
			<g fill="none" stroke="#686868">
				<path d="m56.496 25.269c3.3895 0.55843 5.5971 1.9626 7.0225 3.5993 2.9049 3.3357 2.5608 7.6377 2.3503 7.7166l0.17145-0.91442" stroke-width="1.6662"/>
				<path d="m57.747 21.948c3.8567 0.6354 5.3427 1.7866 7.2338 3.1496 2.0431 1.4726 4.4271 5.8529 4.3769 10.861" stroke-width="1.8959"/>
				<path d="m55.244 28.596c2.8927 0.47657 4.7767 1.6749 5.9931 3.0717 2.4791 2.8468 2.1854 6.5182 2.0058 6.5855l0.14632-0.78038" stroke-width="1.422"/>
			</g>
			<g transform="matrix(.88945 0 0 .88945 29.143 40.933)">
				<g id="DO_NOT_EDIT_-_BOUNDING_BOX">
					<rect id="BOUNDING_BOX" width="30" height="30" fill="none"/>
				</g>
				<g id="PLACE_YOUR_GRAPHIC_HERE">
					<path d="m31.325-7.5154-21.372 5.6486c-0.94231 0.24975-1.7128 1.2487-1.7128 2.2247v25.609c-1.9927-0.53492-4.5468-0.27809-6.9947 0.90335-15.855 9.8588 10.12 16.263 10.535 3.183v-22.081l17.713-4.685v19.139c-1.9927-0.53315-4.5451-0.27986-6.9947 0.90335-4.166 2.0139-6.3943 5.8912-4.9755 8.6597 1.4152 2.7685 5.9408 3.3831 10.109 1.3656 3.3211-1.6048 5.4112-4.3874 5.4041-6.853v-32.699c0.0018-0.9742-0.7705-1.5676-1.711-1.3178z" fill="url(#linearGradient3998)"/>
				</g>
			</g>
			<g fill="none" stroke="url(#linearGradient4013)">
				<path d="m55.758 25.307c3.3895 0.55842 5.5971 1.9626 7.0225 3.5993 2.9049 3.3357 2.5608 7.6377 2.3503 7.7166l0.17145-0.91442" stroke-width="1.6662"/>
				<path d="m57.008 21.985c3.8567 0.6354 5.3427 1.7866 7.2338 3.1496 2.0431 1.4726 4.4271 5.8529 4.3769 10.861" stroke-width="1.8959"/>
				<path d="m54.506 28.634c2.8927 0.47657 4.7767 1.6749 5.9931 3.0717 2.4791 2.8468 2.1854 6.5182 2.0058 6.5855l0.14632-0.78038" stroke-width="1.422"/>
			</g>
		</g>
	</g>
</svg>
