<svg enable-background="new 0 0 64 64" version="1.1" viewBox="0 0 64 64" xml:space="preserve" xmlns="http://www.w3.org/2000/svg">
<circle cx="32" cy="32" r="30" fill="#fff" opacity=".2"/>
<path d="m25.916 42c0 1.1 0.9 2 2 2h3c1.1 0 2-0.9 2-2v-20c0-1.1-0.9-2-2-2h-3c-1.1 0-2 0.9-2 2zm6 0c0 1.1 0.9 2 2 2h3c1.1 0 2-0.9 2-2v-20c0-1.1-0.9-2-2-2h-3c-1.1 0-2 0.9-2 2zm-2 0c0 1.1 0.9 2 2 2h3c1.1 0 2-0.9 2-2v-20c0-1.1-0.9-2-2-2h-3c-1.1 0-2 0.9-2 2zm-4 0c0 1.1 0.9 2 2 2h3c1.1 0 2-0.9 2-2v-20c0-1.1-0.9-2-2-2h-3c-1.1 0-2 0.9-2 2zm11-22c-1.1 0-2 0.9-2 2v20c0 1.1 0.9 2 2 2h3c1.1 0 2-0.9 2-2v-20c0-1.1-0.9-2-2-2zm-15 22c0 1.1 0.9 2 2 2h3c1.1 0 2-0.9 2-2v-20c0-1.1-0.9-2-2-2h-3c-1.1 0-2 0.9-2 2z" fill="#fff" opacity=".6"/>
</svg>
