<svg width="56.533" height="56.533" version="1.1" viewBox="0 0 53 53" xmlns="http://www.w3.org/2000/svg">
	<g fill="none" stroke="#fff">
		<path d="m32.972 11.644-19.01 5.0241c-0.83815 0.22214-1.5235 1.1107-1.5235 1.9788v22.778c-1.7724-0.47579-4.0442-0.24735-6.2215 0.80348-14.102 8.769 9.0009 14.465 9.3709 2.8311v-19.64l15.755-4.1671v17.023c-1.7724-0.47421-4.0426-0.24892-6.2215 0.80349-3.7055 1.7913-5.6874 5.24-4.4255 7.7024 1.2588 2.4624 5.2841 3.0091 8.9912 1.2147 2.954-1.4274 4.813-3.9024 4.8068-6.0954v-29.085c2e-3 -0.8665-0.68533-1.3943-1.5219-1.1721z" stroke-opacity=".76471" stroke-width=".5"/>
		<g stroke-opacity=".62745" stroke-width=".92248">
			<path d="m34.799 5.4034c4.3036 0.58479 7.1068 2.0552 8.9165 3.7692 3.47 2.977 3.5293 8.1173 3.5201 8.3786"/>
			<path d="m36.386 1.9267c4.8969 0.66539 6.7836 1.8709 9.1848 3.2983 2.5941 1.5421 5.6211 6.1292 5.5574 11.374"/>
			<path d="m33.656 8.7318c3.6729 0.49906 5.6084 1.9128 7.153 3.3756 3.1477 2.9812 2.7153 6.2701 2.7254 6.5787"/>
		</g>
	</g>
</svg>
